<?xml version="1.0" encoding="UTF-8"?>
<!DOCTYPE svg PUBLIC "-//W3C//DTD SVG 1.1//EN" "http://www.w3.org/Graphics/SVG/1.1/DTD/svg11.dtd">
<!-- Creator: CorelDRAW X7 -->
<svg xmlns="http://www.w3.org/2000/svg" xml:space="preserve" width="129.857mm" height="112.48mm" version="1.1" style="shape-rendering:geometricPrecision; text-rendering:geometricPrecision; image-rendering:optimizeQuality; fill-rule:evenodd; clip-rule:evenodd"
viewBox="0 0 12986 11248"
 xmlns:xlink="http://www.w3.org/1999/xlink">
 <defs>
  <style type="text/css">
   <![CDATA[
    .fil2 {fill:none}
    .fil0 {fill:#2E2E2D}
    .fil1 {fill:#C51B1B}
   ]]>
  </style>
 </defs>
 <g id="Capa_x0020_1">
  <metadata id="CorelCorpID_0Corel-Layer"/>
  <g id="_2322289857488">
   <g>
    <path class="fil0" d="M9976 6557l228 0 543 829 0 -829 239 0 0 1260 -230 0 -541 -826 0 826 -239 0 0 -1260zm-696 -434l277 0 -314 336 -167 0 204 -336zm-49 638c-116,0 -214,40 -293,121 -79,81 -119,184 -119,310 0,139 50,249 150,330 77,64 166,95 266,95 114,0 210,-41 290,-123 80,-82 119,-184 119,-304 0,-120 -40,-222 -120,-305 -80,-83 -178,-124 -293,-124zm3 -236c179,0 332,65 460,194 129,129 193,286 193,472 0,184 -64,340 -190,467 -127,127 -280,191 -461,191 -189,0 -346,-65 -471,-196 -125,-131 -188,-286 -188,-466 0,-121 29,-232 87,-333 59,-101 139,-181 241,-240 102,-59 212,-89 329,-89zm-963 32l239 0 0 1260 -239 0 0 -1260zm-52 221l-168 160c-115,-121 -243,-181 -386,-181 -121,0 -223,41 -305,123 -83,83 -124,184 -124,305 0,84 18,158 55,223 36,65 88,117 155,154 67,37 141,55 223,55 70,0 133,-13 191,-39 58,-26 121,-73 191,-142l163 171c-94,91 -182,154 -264,189 -83,36 -178,53 -284,53 -196,0 -357,-62 -482,-186 -125,-124 -187,-284 -187,-478 0,-126 28,-237 85,-335 57,-98 138,-176 245,-236 106,-59 220,-89 342,-89 104,0 204,22 301,66 96,44 179,106 249,187zm-1811 114l-171 434 341 0 -170 -434zm-121 -335l242 0 485 1260 -250 0 -98 -259 -517 0 -101 259 -249 0 488 -1260zm-1106 0l697 0 0 237 -230 0 0 1023 -244 0 0 -1023 -223 0 0 -237zm-869 0l240 0 0 815c0,71 7,120 19,149 12,30 32,53 61,70 28,18 62,26 102,26 43,0 79,-9 110,-29 30,-19 51,-44 63,-74 12,-30 18,-87 18,-172l0 -785 240 0 0 751c0,127 -7,215 -21,264 -15,49 -42,97 -82,142 -40,46 -87,80 -139,102 -53,22 -114,33 -184,33 -91,0 -171,-21 -238,-63 -68,-42 -116,-94 -146,-158 -29,-63 -43,-169 -43,-320l0 -751zm-597 493l77 0c60,0 102,-4 126,-13 23,-8 42,-22 56,-42 13,-20 20,-44 20,-73 0,-49 -19,-84 -57,-106 -28,-17 -79,-26 -154,-26l-68 0 0 260zm-239 -493l255 0c138,0 237,12 298,38 60,25 109,67 144,123 35,57 53,125 53,205 0,88 -24,161 -70,219 -46,59 -108,99 -188,122 -46,13 -131,20 -253,20l0 533 -239 0 0 -1260zm-367 0l239 0 0 1260 -239 0 0 -1260zm-831 232l0 795 111 0c110,0 189,-13 239,-38 49,-25 89,-67 121,-127 31,-59 47,-132 47,-220 0,-133 -38,-237 -112,-311 -67,-66 -176,-99 -325,-99l-81 0zm-239 -232l284 0c183,0 320,23 409,68 89,45 162,119 220,222 57,102 86,221 86,358 0,97 -16,186 -48,267 -32,82 -77,149 -134,203 -57,54 -118,91 -184,112 -66,20 -181,30 -344,30l-289 0 0 -1260zm8182 1414l773 0 -456 1042 426 0 0 235 -781 0 454 -1037 -416 0 0 -240zm-686 206c-118,0 -217,41 -297,123 -80,83 -120,187 -120,314 0,141 50,253 151,335 79,64 169,96 270,96 115,0 213,-42 294,-125 80,-83 121,-186 121,-308 0,-122 -41,-224 -122,-309 -82,-84 -181,-126 -297,-126zm3 -238c181,0 336,65 466,196 130,131 195,290 195,478 0,187 -64,344 -192,473 -128,129 -284,194 -467,194 -192,0 -351,-66 -477,-199 -127,-132 -191,-290 -191,-472 0,-122 30,-234 89,-337 59,-102 140,-184 243,-243 104,-60 215,-90 334,-90zm-997 32l244 0 0 847c0,135 -11,230 -32,284 -22,54 -57,98 -106,130 -49,32 -108,48 -177,48 -139,0 -259,-62 -358,-185l175 -165c38,45 71,74 98,89 28,15 54,23 79,23 26,0 45,-11 58,-33 13,-22 19,-71 19,-145l0 -893zm-977 339l-173 440 345 0 -172 -440zm-123 -339l245 0 492 1277 -253 0 -100 -263 -524 0 -102 263 -252 0 494 -1277zm-1250 235l0 805 112 0c112,0 192,-12 242,-38 50,-25 91,-68 123,-129 32,-60 48,-134 48,-222 0,-136 -38,-241 -114,-316 -68,-67 -178,-100 -329,-100l-82 0zm-242 -235l288 0c185,0 323,23 414,69 90,46 164,120 223,224 58,104 87,225 87,363 0,99 -16,189 -49,271 -32,83 -78,151 -135,206 -58,54 -120,92 -187,113 -67,21 -183,31 -349,31l-292 0 0 -1277zm-662 339l-174 440 346 0 -172 -440zm-123 -339l245 0 491 1277 -253 0 -99 -263 -524 0 -102 263 -253 0 495 -1277zm-1040 718l0 328 61 0c103,0 172,-13 207,-39 36,-25 54,-62 54,-111 0,-55 -21,-98 -63,-130 -42,-32 -111,-48 -208,-48l-51 0zm0 -487l0 270 54 0c60,0 106,-12 135,-37 29,-25 44,-59 44,-102 0,-40 -14,-72 -42,-96 -28,-23 -70,-35 -127,-35l-64 0zm-242 1046l0 -1277 201 0c117,0 203,7 257,22 77,21 138,58 183,113 46,55 69,120 69,195 0,49 -11,93 -31,133 -21,39 -54,77 -100,111 77,37 134,82 169,137 36,55 54,119 54,194 0,72 -19,137 -56,196 -37,59 -85,103 -144,132 -58,29 -139,44 -243,44l-359 0zm-1071 -938l512 0 0 175 -335 0 0 168 335 0 0 173 -335 0 0 247 335 0 0 175 -512 0 0 -938zm-633 172l0 592 83 0c81,0 140,-9 177,-28 37,-19 67,-50 90,-94 24,-45 35,-99 35,-164 0,-100 -28,-177 -83,-232 -50,-49 -131,-74 -242,-74l-60 0zm-178 -172l212 0c136,0 237,17 304,50 66,34 121,89 163,165 43,76 65,165 65,267 0,72 -12,139 -36,199 -24,61 -58,111 -100,151 -42,40 -88,68 -137,83 -49,15 -135,23 -256,23l-215 0 0 -938z"/>
    <path class="fil1" d="M4146 4519c1337,-974 3134,-1176 4639,-466 351,166 -61,711 -354,551 -1023,-559 -2908,-619 -4213,19 -130,63 -209,-4 -72,-104z"/>
    <path class="fil1" d="M4596 5081c1058,-682 2510,-800 3668,-221 250,125 -57,530 -299,409 -946,-470 -2354,-541 -3339,-99 -130,58 -169,0 -30,-89z"/>
    <path class="fil1" d="M4993 5697c795,-546 1923,-658 2812,-217 249,123 -19,404 -196,314 -732,-368 -1846,-412 -2592,-45 -62,31 -95,-3 -24,-52z"/>
    <path class="fil1" d="M8190 3501c-233,0 -421,-188 -421,-421 0,-233 188,-421 421,-421 233,0 421,188 421,421 0,233 -188,421 -421,421z"/>
    <path class="fil1" d="M4804 3500c233,0 422,-188 422,-421 0,-233 -189,-422 -422,-422 -232,0 -421,189 -421,422 0,233 189,421 421,421l0 0z"/>
    <path class="fil1" d="M6497 3158c320,0 579,-259 579,-579 0,-320 -259,-579 -579,-579 -319,0 -579,259 -579,579 0,320 260,579 579,579l0 0z"/>
   </g>
   <rect class="fil2" width="12986" height="11248"/>
  </g>
 </g>
</svg>
